<mxfile host="65bd71144e">
    <diagram id="ZuCOV0_qN6HusFbcBUgv" name="第 1 页">
        <mxGraphModel dx="6664" dy="4464" grid="1" gridSize="10" guides="1" tooltips="1" connect="1" arrows="1" fold="1" page="1" pageScale="1" pageWidth="1654" pageHeight="1169" math="0" shadow="0">
            <root>
                <mxCell id="0"/>
                <mxCell id="1" parent="0"/>
                <mxCell id="1tluZb3VSvg_V_Hee0aS-3" value="" style="rounded=1;whiteSpace=wrap;html=1;sketch=1;hachureGap=4;jiggle=2;curveFitting=1;rotation=90;direction=west;" parent="1" vertex="1">
                    <mxGeometry x="-424.25" y="-418.75" width="517.5" height="235" as="geometry"/>
                </mxCell>
                <mxCell id="1tluZb3VSvg_V_Hee0aS-4" value="自编构造函数Person" style="text;strokeColor=none;align=center;fillColor=none;html=1;verticalAlign=middle;whiteSpace=wrap;rounded=0;fontSize=18;" parent="1" vertex="1">
                    <mxGeometry x="-263" y="-550" width="205" height="60" as="geometry"/>
                </mxCell>
                <mxCell id="1tluZb3VSvg_V_Hee0aS-10" value="" style="rounded=1;whiteSpace=wrap;html=1;sketch=1;hachureGap=4;jiggle=2;curveFitting=1;rotation=90;direction=west;" parent="1" vertex="1">
                    <mxGeometry x="-101.75" y="-421.25" width="522.5" height="245" as="geometry"/>
                </mxCell>
                <mxCell id="1tluZb3VSvg_V_Hee0aS-20" value="&lt;font style=&quot;font-size: 18px;&quot;&gt;JS内置的Object&lt;/font&gt;" style="text;strokeColor=none;align=center;fillColor=none;html=1;verticalAlign=middle;whiteSpace=wrap;rounded=0;" parent="1" vertex="1">
                    <mxGeometry x="47" y="-550" width="225" height="60" as="geometry"/>
                </mxCell>
                <mxCell id="1tluZb3VSvg_V_Hee0aS-26" value="" style="rounded=1;whiteSpace=wrap;html=1;sketch=1;hachureGap=4;jiggle=2;curveFitting=1;rotation=90;direction=west;" parent="1" vertex="1">
                    <mxGeometry x="248.25" y="-426.25" width="522.5" height="255" as="geometry"/>
                </mxCell>
                <mxCell id="1tluZb3VSvg_V_Hee0aS-21" value="&lt;font style=&quot;font-size: 18px;&quot;&gt;JS内置的Function&lt;/font&gt;" style="text;strokeColor=none;align=center;fillColor=none;html=1;verticalAlign=middle;whiteSpace=wrap;rounded=0;" parent="1" vertex="1">
                    <mxGeometry x="397" y="-540" width="230" height="60" as="geometry"/>
                </mxCell>
                <mxCell id="1tluZb3VSvg_V_Hee0aS-28" value="" style="rounded=1;whiteSpace=wrap;html=1;sketch=1;hachureGap=4;jiggle=2;curveFitting=1;rotation=90;direction=west;" parent="1" vertex="1">
                    <mxGeometry x="-774.25" y="-418.75" width="517.5" height="235" as="geometry"/>
                </mxCell>
                <mxCell id="1tluZb3VSvg_V_Hee0aS-30" value="Person的实例化对象" style="text;strokeColor=none;align=center;fillColor=none;html=1;verticalAlign=middle;whiteSpace=wrap;rounded=0;fontSize=18;" parent="1" vertex="1">
                    <mxGeometry x="-603" y="-550" width="180" height="60" as="geometry"/>
                </mxCell>
                <mxCell id="ahY-jJ4lqd9sdvCP5ef7-1" value="&lt;font style=&quot;font-size: 18px;&quot;&gt;__proto__&lt;/font&gt;" style="text;strokeColor=none;align=center;fillColor=none;html=1;verticalAlign=middle;whiteSpace=wrap;rounded=0;" parent="1" vertex="1">
                    <mxGeometry x="-545.5" y="-90" width="60" height="30" as="geometry"/>
                </mxCell>
                <mxCell id="ahY-jJ4lqd9sdvCP5ef7-26" style="edgeStyle=orthogonalEdgeStyle;rounded=0;sketch=1;hachureGap=4;jiggle=2;curveFitting=1;orthogonalLoop=1;jettySize=auto;html=1;entryX=0.25;entryY=0;entryDx=0;entryDy=0;" parent="1" source="ahY-jJ4lqd9sdvCP5ef7-3" target="ahY-jJ4lqd9sdvCP5ef7-18" edge="1">
                    <mxGeometry relative="1" as="geometry">
                        <Array as="points">
                            <mxPoint x="-165" y="170"/>
                            <mxPoint x="827" y="170"/>
                            <mxPoint x="827" y="-352"/>
                        </Array>
                    </mxGeometry>
                </mxCell>
                <mxCell id="ahY-jJ4lqd9sdvCP5ef7-3" value="&lt;font style=&quot;font-size: 18px;&quot;&gt;__proto__&lt;/font&gt;" style="text;strokeColor=none;align=center;fillColor=none;html=1;verticalAlign=middle;whiteSpace=wrap;rounded=0;" parent="1" vertex="1">
                    <mxGeometry x="-195.5" y="-90" width="60" height="30" as="geometry"/>
                </mxCell>
                <mxCell id="ahY-jJ4lqd9sdvCP5ef7-30" value="" style="edgeStyle=orthogonalEdgeStyle;rounded=0;sketch=1;hachureGap=4;jiggle=2;curveFitting=1;orthogonalLoop=1;jettySize=auto;html=1;entryX=0.882;entryY=-0.026;entryDx=0;entryDy=0;entryPerimeter=0;" parent="1" source="ahY-jJ4lqd9sdvCP5ef7-4" target="ahY-jJ4lqd9sdvCP5ef7-18" edge="1">
                    <mxGeometry relative="1" as="geometry">
                        <mxPoint x="152" y="30" as="targetPoint"/>
                        <Array as="points">
                            <mxPoint x="160" y="40"/>
                            <mxPoint x="707" y="40"/>
                            <mxPoint x="707" y="-168"/>
                        </Array>
                    </mxGeometry>
                </mxCell>
                <mxCell id="ahY-jJ4lqd9sdvCP5ef7-4" value="&lt;font style=&quot;font-size: 18px;&quot;&gt;__proto__&lt;/font&gt;" style="text;strokeColor=none;align=center;fillColor=none;html=1;verticalAlign=middle;whiteSpace=wrap;rounded=0;" parent="1" vertex="1">
                    <mxGeometry x="104.5" y="-90" width="110" height="30" as="geometry"/>
                </mxCell>
                <mxCell id="ahY-jJ4lqd9sdvCP5ef7-28" style="edgeStyle=orthogonalEdgeStyle;rounded=0;sketch=1;hachureGap=4;jiggle=2;curveFitting=1;orthogonalLoop=1;jettySize=auto;html=1;entryX=0.5;entryY=0;entryDx=0;entryDy=0;" parent="1" source="ahY-jJ4lqd9sdvCP5ef7-5" target="ahY-jJ4lqd9sdvCP5ef7-18" edge="1">
                    <mxGeometry relative="1" as="geometry">
                        <Array as="points">
                            <mxPoint x="510" y="120"/>
                            <mxPoint x="797" y="120"/>
                            <mxPoint x="797" y="-279"/>
                        </Array>
                    </mxGeometry>
                </mxCell>
                <mxCell id="ahY-jJ4lqd9sdvCP5ef7-5" value="&lt;font style=&quot;font-size: 18px;&quot;&gt;__proto__&lt;/font&gt;" style="text;strokeColor=none;align=center;fillColor=none;html=1;verticalAlign=middle;whiteSpace=wrap;rounded=0;" parent="1" vertex="1">
                    <mxGeometry x="479.5" y="-90" width="60" height="30" as="geometry"/>
                </mxCell>
                <mxCell id="ahY-jJ4lqd9sdvCP5ef7-8" value="" style="rounded=0;whiteSpace=wrap;html=1;sketch=1;hachureGap=4;jiggle=2;curveFitting=1;rotation=90;" parent="1" vertex="1">
                    <mxGeometry x="-306.12" y="-354.37" width="281.25" height="160" as="geometry"/>
                </mxCell>
                <mxCell id="ahY-jJ4lqd9sdvCP5ef7-9" value="&lt;font style=&quot;font-size: 18px;&quot;&gt;prototype:&lt;/font&gt;" style="text;strokeColor=none;align=center;fillColor=none;html=1;verticalAlign=middle;whiteSpace=wrap;rounded=0;" parent="1" vertex="1">
                    <mxGeometry x="-234.25" y="-450" width="137.5" height="30" as="geometry"/>
                </mxCell>
                <mxCell id="ahY-jJ4lqd9sdvCP5ef7-12" value="&lt;font style=&quot;font-size: 18px;&quot;&gt;prototype: undefined&lt;/font&gt;" style="text;strokeColor=none;align=center;fillColor=none;html=1;verticalAlign=middle;whiteSpace=wrap;rounded=0;" parent="1" vertex="1">
                    <mxGeometry x="-613" y="-313.75" width="200" height="30" as="geometry"/>
                </mxCell>
                <mxCell id="ahY-jJ4lqd9sdvCP5ef7-16" value="" style="rounded=0;whiteSpace=wrap;html=1;sketch=1;hachureGap=4;jiggle=2;curveFitting=1;rotation=90;" parent="1" vertex="1">
                    <mxGeometry x="21.379999999999995" y="-356.87" width="276.25" height="160" as="geometry"/>
                </mxCell>
                <mxCell id="ahY-jJ4lqd9sdvCP5ef7-17" value="&lt;font style=&quot;font-size: 18px;&quot;&gt;prototype:&lt;/font&gt;" style="text;strokeColor=none;align=center;fillColor=none;html=1;verticalAlign=middle;whiteSpace=wrap;rounded=0;" parent="1" vertex="1">
                    <mxGeometry x="90.75" y="-450" width="137.5" height="30" as="geometry"/>
                </mxCell>
                <mxCell id="ahY-jJ4lqd9sdvCP5ef7-18" value="" style="rounded=0;whiteSpace=wrap;html=1;sketch=1;hachureGap=4;jiggle=2;curveFitting=1;rotation=90;" parent="1" vertex="1">
                    <mxGeometry x="366.07" y="-359.05999999999995" width="291.87" height="160" as="geometry"/>
                </mxCell>
                <mxCell id="ahY-jJ4lqd9sdvCP5ef7-19" value="&lt;font style=&quot;font-size: 18px;&quot;&gt;prototype:&lt;/font&gt;" style="text;strokeColor=none;align=center;fillColor=none;html=1;verticalAlign=middle;whiteSpace=wrap;rounded=0;" parent="1" vertex="1">
                    <mxGeometry x="443.25" y="-460" width="137.5" height="30" as="geometry"/>
                </mxCell>
                <mxCell id="ahY-jJ4lqd9sdvCP5ef7-21" style="edgeStyle=orthogonalEdgeStyle;rounded=0;sketch=1;hachureGap=4;jiggle=2;curveFitting=1;orthogonalLoop=1;jettySize=auto;html=1;entryX=0.5;entryY=1;entryDx=0;entryDy=0;" parent="1" source="ahY-jJ4lqd9sdvCP5ef7-1" target="ahY-jJ4lqd9sdvCP5ef7-8" edge="1">
                    <mxGeometry relative="1" as="geometry">
                        <Array as="points">
                            <mxPoint x="-515" y="170"/>
                            <mxPoint x="-333" y="170"/>
                            <mxPoint x="-333" y="-274"/>
                        </Array>
                    </mxGeometry>
                </mxCell>
                <mxCell id="ahY-jJ4lqd9sdvCP5ef7-25" style="edgeStyle=orthogonalEdgeStyle;rounded=0;sketch=1;hachureGap=4;jiggle=2;curveFitting=1;orthogonalLoop=1;jettySize=auto;html=1;entryX=0.5;entryY=1;entryDx=0;entryDy=0;" parent="1" source="ahY-jJ4lqd9sdvCP5ef7-22" target="ahY-jJ4lqd9sdvCP5ef7-16" edge="1">
                    <mxGeometry relative="1" as="geometry">
                        <Array as="points">
                            <mxPoint x="-3" y="-191"/>
                            <mxPoint x="-3" y="-277"/>
                        </Array>
                    </mxGeometry>
                </mxCell>
                <mxCell id="ahY-jJ4lqd9sdvCP5ef7-22" value="&lt;font style=&quot;font-size: 18px;&quot;&gt;__proto__&lt;/font&gt;" style="text;strokeColor=none;align=center;fillColor=none;html=1;verticalAlign=middle;whiteSpace=wrap;rounded=0;" parent="1" vertex="1">
                    <mxGeometry x="-195.5" y="-206.25" width="60" height="30" as="geometry"/>
                </mxCell>
                <mxCell id="ahY-jJ4lqd9sdvCP5ef7-23" value="&lt;font style=&quot;font-size: 18px;&quot;&gt;__proto__: null&lt;/font&gt;" style="text;strokeColor=none;align=center;fillColor=none;html=1;verticalAlign=middle;whiteSpace=wrap;rounded=0;" parent="1" vertex="1">
                    <mxGeometry x="87" y="-206.25" width="150" height="30" as="geometry"/>
                </mxCell>
                <mxCell id="ahY-jJ4lqd9sdvCP5ef7-37" style="edgeStyle=orthogonalEdgeStyle;rounded=0;sketch=1;hachureGap=4;jiggle=2;curveFitting=1;orthogonalLoop=1;jettySize=auto;html=1;entryX=0.25;entryY=0;entryDx=0;entryDy=0;" parent="1" source="ahY-jJ4lqd9sdvCP5ef7-24" target="ahY-jJ4lqd9sdvCP5ef7-16" edge="1">
                    <mxGeometry relative="1" as="geometry">
                        <Array as="points">
                            <mxPoint x="507" y="-346"/>
                        </Array>
                    </mxGeometry>
                </mxCell>
                <mxCell id="ahY-jJ4lqd9sdvCP5ef7-24" value="&lt;font style=&quot;font-size: 18px;&quot;&gt;__proto__&lt;/font&gt;" style="text;strokeColor=none;align=center;fillColor=none;html=1;verticalAlign=middle;whiteSpace=wrap;rounded=0;" parent="1" vertex="1">
                    <mxGeometry x="487" y="-206.25" width="60" height="30" as="geometry"/>
                </mxCell>
                <mxCell id="ahY-jJ4lqd9sdvCP5ef7-31" value="" style="rounded=1;whiteSpace=wrap;html=1;sketch=1;hachureGap=4;jiggle=2;curveFitting=1;rotation=90;direction=west;" parent="1" vertex="1">
                    <mxGeometry x="-1153" y="-418.75" width="517.5" height="235" as="geometry"/>
                </mxCell>
                <mxCell id="ahY-jJ4lqd9sdvCP5ef7-32" value="&lt;font style=&quot;font-size: 18px;&quot;&gt;prototype: undefined&lt;/font&gt;" style="text;strokeColor=none;align=center;fillColor=none;html=1;verticalAlign=middle;whiteSpace=wrap;rounded=0;" parent="1" vertex="1">
                    <mxGeometry x="-991.75" y="-313.75" width="200" height="30" as="geometry"/>
                </mxCell>
                <mxCell id="ahY-jJ4lqd9sdvCP5ef7-33" value="普通对象 { a: true }" style="text;strokeColor=none;align=center;fillColor=none;html=1;verticalAlign=middle;whiteSpace=wrap;rounded=0;fontSize=18;" parent="1" vertex="1">
                    <mxGeometry x="-981.75" y="-550" width="180" height="60" as="geometry"/>
                </mxCell>
                <mxCell id="ahY-jJ4lqd9sdvCP5ef7-36" value="" style="edgeStyle=orthogonalEdgeStyle;rounded=0;sketch=1;hachureGap=4;jiggle=2;curveFitting=1;orthogonalLoop=1;jettySize=auto;html=1;entryX=0.589;entryY=-0.002;entryDx=0;entryDy=0;entryPerimeter=0;" parent="1" source="ahY-jJ4lqd9sdvCP5ef7-34" target="ahY-jJ4lqd9sdvCP5ef7-16" edge="1">
                    <mxGeometry relative="1" as="geometry">
                        <mxPoint x="-894.25" y="5" as="targetPoint"/>
                        <Array as="points">
                            <mxPoint x="-894" y="280"/>
                            <mxPoint x="347" y="280"/>
                            <mxPoint x="347" y="-252"/>
                        </Array>
                    </mxGeometry>
                </mxCell>
                <mxCell id="ahY-jJ4lqd9sdvCP5ef7-34" value="&lt;font style=&quot;font-size: 18px;&quot;&gt;__proto__&lt;/font&gt;" style="text;strokeColor=none;align=center;fillColor=none;html=1;verticalAlign=middle;whiteSpace=wrap;rounded=0;" parent="1" vertex="1">
                    <mxGeometry x="-924.25" y="-90" width="60" height="30" as="geometry"/>
                </mxCell>
            </root>
        </mxGraphModel>
    </diagram>
</mxfile>